<mxfile host="65bd71144e">
    <diagram id="3ieZsHlMQ_6X4TRrmow1" name="ページ1">
        <mxGraphModel dx="1290" dy="555" grid="1" gridSize="10" guides="1" tooltips="1" connect="1" arrows="1" fold="1" page="1" pageScale="1" pageWidth="1169" pageHeight="827" background="#FFFFFF" math="0" shadow="0">
            <root>
                <mxCell id="0"/>
                <mxCell id="1" style="locked=1;" parent="0"/>
                <mxCell id="99" value="Book Writer" style="swimlane;whiteSpace=wrap;html=1;strokeColor=#808080;fontColor=#000000;fillColor=none;startSize=40;" vertex="1" parent="1">
                    <mxGeometry x="320" y="280" width="640" height="840" as="geometry"/>
                </mxCell>
                <mxCell id="100" value="アクター" parent="0"/>
                <mxCell id="101" value="" style="group" vertex="1" connectable="0" parent="100">
                    <mxGeometry x="40" y="490" width="80" height="80" as="geometry"/>
                </mxCell>
                <mxCell id="102" value="Actor" style="shape=umlActor;verticalLabelPosition=bottom;verticalAlign=top;html=1;outlineConnect=0;strokeColor=#000000;" vertex="1" parent="101">
                    <mxGeometry x="25" width="30" height="60" as="geometry"/>
                </mxCell>
                <mxCell id="103" value="&lt;font color=&quot;#000000&quot;&gt;編集者&lt;/font&gt;" style="text;strokeColor=none;align=center;fillColor=none;html=1;verticalAlign=middle;whiteSpace=wrap;rounded=0;fontFamily=Helvetica;fontSize=12;fontColor=default;" vertex="1" parent="101">
                    <mxGeometry y="60" width="80" height="20" as="geometry"/>
                </mxCell>
                <mxCell id="104" value="" style="group" vertex="1" connectable="0" parent="100">
                    <mxGeometry x="230" y="1000" width="80" height="80" as="geometry"/>
                </mxCell>
                <mxCell id="105" value="" style="group" vertex="1" connectable="0" parent="104">
                    <mxGeometry width="80" height="80" as="geometry"/>
                </mxCell>
                <mxCell id="106" value="Actor" style="shape=umlActor;verticalLabelPosition=bottom;verticalAlign=top;html=1;outlineConnect=0;strokeColor=#000000;" vertex="1" parent="105">
                    <mxGeometry x="25" width="30" height="60" as="geometry"/>
                </mxCell>
                <mxCell id="183" value="" style="edgeStyle=none;html=1;dashed=1;strokeColor=#000000;fontColor=#000000;startArrow=none;startFill=0;endArrow=none;endFill=0;" edge="1" parent="105" source="107" target="106">
                    <mxGeometry relative="1" as="geometry"/>
                </mxCell>
                <mxCell id="107" value="&lt;font color=&quot;#000000&quot;&gt;執筆者&lt;/font&gt;" style="text;strokeColor=none;align=center;fillColor=none;html=1;verticalAlign=middle;whiteSpace=wrap;rounded=0;fontFamily=Helvetica;fontSize=12;fontColor=default;" vertex="1" parent="105">
                    <mxGeometry y="60" width="80" height="20" as="geometry"/>
                </mxCell>
                <mxCell id="108" value="" style="group" vertex="1" connectable="0" parent="100">
                    <mxGeometry x="600" y="160" width="80" height="80" as="geometry"/>
                </mxCell>
                <mxCell id="109" value="Actor" style="shape=umlActor;verticalLabelPosition=bottom;verticalAlign=top;html=1;outlineConnect=0;strokeColor=#000000;" vertex="1" parent="108">
                    <mxGeometry x="25" width="30" height="60" as="geometry"/>
                </mxCell>
                <mxCell id="110" value="&lt;font color=&quot;#000000&quot;&gt;管理者&lt;/font&gt;" style="text;strokeColor=none;align=center;fillColor=none;html=1;verticalAlign=middle;whiteSpace=wrap;rounded=0;fontFamily=Helvetica;fontSize=12;fontColor=default;" vertex="1" parent="108">
                    <mxGeometry y="60" width="80" height="20" as="geometry"/>
                </mxCell>
                <mxCell id="119" value="" style="startArrow=none;endArrow=none;segment=10;sourcePerimeterSpacing=0;targetPerimeterSpacing=0;fontFamily=Helvetica;fontSize=12;fontColor=#000000;rounded=0;strokeColor=#000000;entryX=0.5;entryY=0;entryDx=0;entryDy=0;dashed=1;exitX=0.5;exitY=1;exitDx=0;exitDy=0;" edge="1" parent="100" source="125" target="121">
                    <mxGeometry relative="1" as="geometry">
                        <mxPoint x="430" y="760" as="sourcePoint"/>
                        <mxPoint x="450" y="325" as="targetPoint"/>
                    </mxGeometry>
                </mxCell>
                <mxCell id="121" value="執筆者の割り当て" style="whiteSpace=wrap;html=1;rounded=1;arcSize=50;align=center;verticalAlign=middle;strokeWidth=1;autosize=1;spacing=4;treeFolding=1;treeMoving=1;newEdgeStyle={&quot;edgeStyle&quot;:&quot;entityRelationEdgeStyle&quot;,&quot;startArrow&quot;:&quot;none&quot;,&quot;endArrow&quot;:&quot;none&quot;,&quot;segment&quot;:10,&quot;curved&quot;:1,&quot;sourcePerimeterSpacing&quot;:0,&quot;targetPerimeterSpacing&quot;:0};strokeColor=#000000;fontFamily=Helvetica;fontSize=12;fontColor=#000000;fillColor=none;fillStyle=auto;" vertex="1" parent="100">
                    <mxGeometry x="370" y="720" width="120" height="30" as="geometry"/>
                </mxCell>
                <mxCell id="155" value="目次の作成&lt;br&gt;（構造の定義）" style="whiteSpace=wrap;html=1;rounded=1;arcSize=50;align=center;verticalAlign=middle;strokeWidth=1;autosize=1;spacing=4;treeFolding=1;treeMoving=1;newEdgeStyle={&quot;edgeStyle&quot;:&quot;entityRelationEdgeStyle&quot;,&quot;startArrow&quot;:&quot;none&quot;,&quot;endArrow&quot;:&quot;none&quot;,&quot;segment&quot;:10,&quot;curved&quot;:1,&quot;sourcePerimeterSpacing&quot;:0,&quot;targetPerimeterSpacing&quot;:0};strokeColor=#000000;fontFamily=Helvetica;fontSize=12;fontColor=#000000;fillColor=none;fillStyle=auto;" vertex="1" parent="100">
                    <mxGeometry x="365" y="505" width="130" height="50" as="geometry"/>
                </mxCell>
                <mxCell id="180" style="edgeStyle=entityRelationEdgeStyle;html=1;startArrow=none;endArrow=none;segment=10;curved=1;sourcePerimeterSpacing=0;targetPerimeterSpacing=0;exitX=1;exitY=0.5;exitDx=0;exitDy=0;dashed=1;strokeColor=#000000;fontColor=#000000;" edge="1" parent="100" source="122">
                    <mxGeometry relative="1" as="geometry">
                        <mxPoint x="510" y="805.2857142857142" as="targetPoint"/>
                    </mxGeometry>
                </mxCell>
                <mxCell id="122" value="記事の文書校正" style="whiteSpace=wrap;html=1;rounded=1;arcSize=50;align=center;verticalAlign=middle;strokeWidth=1;autosize=1;spacing=4;treeFolding=1;treeMoving=1;newEdgeStyle={&quot;edgeStyle&quot;:&quot;entityRelationEdgeStyle&quot;,&quot;startArrow&quot;:&quot;none&quot;,&quot;endArrow&quot;:&quot;none&quot;,&quot;segment&quot;:10,&quot;curved&quot;:1,&quot;sourcePerimeterSpacing&quot;:0,&quot;targetPerimeterSpacing&quot;:0};strokeColor=#000000;fontFamily=Helvetica;fontSize=12;fontColor=#000000;fillColor=none;fillStyle=auto;" vertex="1" parent="100">
                    <mxGeometry x="365" y="790" width="130" height="30" as="geometry"/>
                </mxCell>
                <mxCell id="123" value="" style="group" vertex="1" connectable="0" parent="100">
                    <mxGeometry x="370" y="590" width="120" height="30" as="geometry"/>
                </mxCell>
                <mxCell id="124" value="記事の作成" style="whiteSpace=wrap;html=1;rounded=1;arcSize=50;align=center;verticalAlign=middle;strokeWidth=1;autosize=1;spacing=4;treeFolding=1;treeMoving=1;newEdgeStyle={&quot;edgeStyle&quot;:&quot;entityRelationEdgeStyle&quot;,&quot;startArrow&quot;:&quot;none&quot;,&quot;endArrow&quot;:&quot;none&quot;,&quot;segment&quot;:10,&quot;curved&quot;:1,&quot;sourcePerimeterSpacing&quot;:0,&quot;targetPerimeterSpacing&quot;:0};strokeColor=#000000;fontFamily=Helvetica;fontSize=12;fontColor=#000000;fillColor=none;fillStyle=auto;" vertex="1" parent="123">
                    <mxGeometry width="120" height="30" as="geometry"/>
                </mxCell>
                <mxCell id="125" value="記事種別の設定" style="whiteSpace=wrap;html=1;rounded=1;arcSize=50;align=center;verticalAlign=middle;strokeWidth=1;autosize=1;spacing=4;treeFolding=1;treeMoving=1;newEdgeStyle={&quot;edgeStyle&quot;:&quot;entityRelationEdgeStyle&quot;,&quot;startArrow&quot;:&quot;none&quot;,&quot;endArrow&quot;:&quot;none&quot;,&quot;segment&quot;:10,&quot;curved&quot;:1,&quot;sourcePerimeterSpacing&quot;:0,&quot;targetPerimeterSpacing&quot;:0};strokeColor=#000000;fontFamily=Helvetica;fontSize=12;fontColor=#000000;fillColor=none;fillStyle=auto;" vertex="1" parent="100">
                    <mxGeometry x="370" y="660" width="120" height="30" as="geometry"/>
                </mxCell>
                <mxCell id="126" value="テンプレートのデザイン" style="whiteSpace=wrap;html=1;rounded=1;arcSize=50;align=center;verticalAlign=middle;strokeWidth=1;autosize=1;spacing=4;treeFolding=1;treeMoving=1;newEdgeStyle={&quot;edgeStyle&quot;:&quot;entityRelationEdgeStyle&quot;,&quot;startArrow&quot;:&quot;none&quot;,&quot;endArrow&quot;:&quot;none&quot;,&quot;segment&quot;:10,&quot;curved&quot;:1,&quot;sourcePerimeterSpacing&quot;:0,&quot;targetPerimeterSpacing&quot;:0};strokeColor=#000000;fontFamily=Helvetica;fontSize=12;fontColor=#000000;fillColor=none;fillStyle=auto;" vertex="1" parent="100">
                    <mxGeometry x="970" y="730" width="180" height="30" as="geometry"/>
                </mxCell>
                <mxCell id="127" value="" style="edgeStyle=entityRelationEdgeStyle;html=1;startArrow=none;endArrow=none;segment=10;curved=1;sourcePerimeterSpacing=0;targetPerimeterSpacing=0;fontColor=#000000;" edge="1" parent="100" source="128" target="126">
                    <mxGeometry relative="1" as="geometry"/>
                </mxCell>
                <mxCell id="128" value="テンプレートの作成" style="whiteSpace=wrap;html=1;rounded=1;arcSize=50;align=center;verticalAlign=middle;strokeWidth=1;autosize=1;spacing=4;treeFolding=1;treeMoving=1;newEdgeStyle={&quot;edgeStyle&quot;:&quot;entityRelationEdgeStyle&quot;,&quot;startArrow&quot;:&quot;none&quot;,&quot;endArrow&quot;:&quot;none&quot;,&quot;segment&quot;:10,&quot;curved&quot;:1,&quot;sourcePerimeterSpacing&quot;:0,&quot;targetPerimeterSpacing&quot;:0};strokeColor=#000000;fontFamily=Helvetica;fontSize=12;fontColor=#000000;fillColor=none;fillStyle=auto;" vertex="1" parent="100">
                    <mxGeometry x="985" y="660" width="150" height="30" as="geometry"/>
                </mxCell>
                <mxCell id="129" value="記事種別テンプレートの登録" style="whiteSpace=wrap;html=1;rounded=1;arcSize=50;align=center;verticalAlign=middle;strokeWidth=1;autosize=1;spacing=4;treeFolding=1;treeMoving=1;newEdgeStyle={&quot;edgeStyle&quot;:&quot;entityRelationEdgeStyle&quot;,&quot;startArrow&quot;:&quot;none&quot;,&quot;endArrow&quot;:&quot;none&quot;,&quot;segment&quot;:10,&quot;curved&quot;:1,&quot;sourcePerimeterSpacing&quot;:0,&quot;targetPerimeterSpacing&quot;:0};strokeColor=#000000;fontFamily=Helvetica;fontSize=12;fontColor=#000000;fillColor=none;fillStyle=auto;" vertex="1" parent="100">
                    <mxGeometry x="730" y="660" width="200" height="30" as="geometry"/>
                </mxCell>
                <mxCell id="130" value="" style="startArrow=none;endArrow=none;segment=10;sourcePerimeterSpacing=0;targetPerimeterSpacing=0;fontFamily=Helvetica;fontSize=12;fontColor=#000000;rounded=0;strokeColor=#000000;entryX=0;entryY=0.25;entryDx=0;entryDy=0;" edge="1" parent="100" target="125">
                    <mxGeometry relative="1" as="geometry">
                        <mxPoint x="120" y="530" as="sourcePoint"/>
                        <mxPoint x="300" y="670" as="targetPoint"/>
                    </mxGeometry>
                </mxCell>
                <mxCell id="131" value="" style="startArrow=none;endArrow=none;segment=10;sourcePerimeterSpacing=0;targetPerimeterSpacing=0;fontFamily=Helvetica;fontSize=12;fontColor=#000000;rounded=0;strokeColor=#000000;exitX=1;exitY=0.5;exitDx=0;exitDy=0;dashed=1;entryX=0;entryY=0.5;entryDx=0;entryDy=0;" edge="1" parent="100" source="125" target="129">
                    <mxGeometry relative="1" as="geometry">
                        <mxPoint x="570" y="325" as="sourcePoint"/>
                        <mxPoint x="720" y="690" as="targetPoint"/>
                    </mxGeometry>
                </mxCell>
                <mxCell id="132" value="" style="startArrow=none;endArrow=none;segment=10;sourcePerimeterSpacing=0;targetPerimeterSpacing=0;fontFamily=Helvetica;fontSize=12;fontColor=#000000;rounded=0;strokeColor=#000000;exitX=0.5;exitY=1;exitDx=0;exitDy=0;entryX=0.5;entryY=0;entryDx=0;entryDy=0;entryPerimeter=0;" edge="1" parent="100" source="126" target="112">
                    <mxGeometry relative="1" as="geometry">
                        <mxPoint x="855" y="340" as="sourcePoint"/>
                        <mxPoint x="1030" y="860" as="targetPoint"/>
                    </mxGeometry>
                </mxCell>
                <mxCell id="134" value="" style="startArrow=none;endArrow=none;segment=10;sourcePerimeterSpacing=0;targetPerimeterSpacing=0;fontFamily=Helvetica;fontSize=12;fontColor=#000000;rounded=0;strokeColor=#000000;entryX=1;entryY=0.5;entryDx=0;entryDy=0;" edge="1" parent="100" target="138">
                    <mxGeometry relative="1" as="geometry">
                        <mxPoint x="1030" y="880" as="sourcePoint"/>
                        <mxPoint x="840" y="509" as="targetPoint"/>
                    </mxGeometry>
                </mxCell>
                <mxCell id="150" value="" style="startArrow=none;endArrow=none;segment=10;sourcePerimeterSpacing=0;targetPerimeterSpacing=0;fontFamily=Helvetica;fontSize=12;fontColor=#000000;rounded=0;strokeColor=#000000;entryX=1;entryY=0.5;entryDx=0;entryDy=0;" edge="1" parent="100" target="142">
                    <mxGeometry relative="1" as="geometry">
                        <mxPoint x="1030" y="880" as="sourcePoint"/>
                        <mxPoint x="950" y="954.9999999999998" as="targetPoint"/>
                    </mxGeometry>
                </mxCell>
                <mxCell id="135" value="" style="startArrow=none;endArrow=none;segment=10;sourcePerimeterSpacing=0;targetPerimeterSpacing=0;fontFamily=Helvetica;fontSize=12;fontColor=#000000;rounded=0;strokeColor=#000000;entryX=0.5;entryY=0;entryDx=0;entryDy=0;exitX=0.5;exitY=1;exitDx=0;exitDy=0;" edge="1" parent="100" source="128" target="126">
                    <mxGeometry relative="1" as="geometry">
                        <mxPoint x="1060" y="760" as="sourcePoint"/>
                        <mxPoint x="1020" y="320" as="targetPoint"/>
                    </mxGeometry>
                </mxCell>
                <mxCell id="136" value="" style="startArrow=none;endArrow=none;segment=10;sourcePerimeterSpacing=0;targetPerimeterSpacing=0;fontFamily=Helvetica;fontSize=12;fontColor=#000000;rounded=0;strokeColor=#000000;entryX=0;entryY=0.5;entryDx=0;entryDy=0;exitX=1;exitY=0.5;exitDx=0;exitDy=0;" edge="1" parent="100" source="129" target="128">
                    <mxGeometry relative="1" as="geometry">
                        <mxPoint x="1040" y="580" as="sourcePoint"/>
                        <mxPoint x="760" y="510" as="targetPoint"/>
                    </mxGeometry>
                </mxCell>
                <mxCell id="137" value="専用ページから登録" style="whiteSpace=wrap;html=1;rounded=1;arcSize=50;align=center;verticalAlign=middle;strokeWidth=1;autosize=1;spacing=4;treeFolding=1;treeMoving=1;newEdgeStyle={&quot;edgeStyle&quot;:&quot;entityRelationEdgeStyle&quot;,&quot;startArrow&quot;:&quot;none&quot;,&quot;endArrow&quot;:&quot;none&quot;,&quot;segment&quot;:10,&quot;curved&quot;:1,&quot;sourcePerimeterSpacing&quot;:0,&quot;targetPerimeterSpacing&quot;:0};strokeColor=#000000;fontFamily=Helvetica;fontSize=12;fontColor=#000000;fillColor=none;fillStyle=auto;" vertex="1" parent="100">
                    <mxGeometry x="340" y="329" width="150" height="30" as="geometry"/>
                </mxCell>
                <mxCell id="158" value="専用ページから登録" style="whiteSpace=wrap;html=1;rounded=1;arcSize=50;align=center;verticalAlign=middle;strokeWidth=1;autosize=1;spacing=4;treeFolding=1;treeMoving=1;newEdgeStyle={&quot;edgeStyle&quot;:&quot;entityRelationEdgeStyle&quot;,&quot;startArrow&quot;:&quot;none&quot;,&quot;endArrow&quot;:&quot;none&quot;,&quot;segment&quot;:10,&quot;curved&quot;:1,&quot;sourcePerimeterSpacing&quot;:0,&quot;targetPerimeterSpacing&quot;:0};strokeColor=#000000;fontFamily=Helvetica;fontSize=12;fontColor=#000000;fillColor=none;fillStyle=auto;" vertex="1" parent="100">
                    <mxGeometry x="355" y="1025" width="150" height="30" as="geometry"/>
                </mxCell>
                <mxCell id="138" value="専用ページから登録" style="whiteSpace=wrap;html=1;rounded=1;arcSize=50;align=center;verticalAlign=middle;strokeWidth=1;autosize=1;spacing=4;treeFolding=1;treeMoving=1;newEdgeStyle={&quot;edgeStyle&quot;:&quot;entityRelationEdgeStyle&quot;,&quot;startArrow&quot;:&quot;none&quot;,&quot;endArrow&quot;:&quot;none&quot;,&quot;segment&quot;:10,&quot;curved&quot;:1,&quot;sourcePerimeterSpacing&quot;:0,&quot;targetPerimeterSpacing&quot;:0};strokeColor=#000000;fontFamily=Helvetica;fontSize=12;fontColor=#000000;fillColor=none;fillStyle=auto;" vertex="1" parent="100">
                    <mxGeometry x="790" y="880" width="150" height="30" as="geometry"/>
                </mxCell>
                <mxCell id="139" value="" style="startArrow=none;endArrow=none;segment=10;sourcePerimeterSpacing=0;targetPerimeterSpacing=0;fontFamily=Helvetica;fontSize=12;fontColor=#000000;rounded=0;strokeColor=#000000;entryX=0;entryY=0.5;entryDx=0;entryDy=0;" edge="1" parent="100" target="137">
                    <mxGeometry relative="1" as="geometry">
                        <mxPoint x="120" y="530" as="sourcePoint"/>
                    </mxGeometry>
                </mxCell>
                <mxCell id="140" value="" style="startArrow=none;endArrow=none;segment=10;sourcePerimeterSpacing=0;targetPerimeterSpacing=0;fontFamily=Helvetica;fontSize=12;fontColor=#000000;rounded=0;strokeColor=#000000;entryX=0;entryY=0.5;entryDx=0;entryDy=0;" edge="1" parent="100" target="141">
                    <mxGeometry relative="1" as="geometry">
                        <mxPoint x="120" y="530" as="sourcePoint"/>
                        <mxPoint x="169.9999999999999" y="374" as="targetPoint"/>
                    </mxGeometry>
                </mxCell>
                <mxCell id="141" value="共通ページからログイン" style="whiteSpace=wrap;html=1;rounded=1;arcSize=50;align=center;verticalAlign=middle;strokeWidth=1;autosize=1;spacing=4;treeFolding=1;treeMoving=1;newEdgeStyle={&quot;edgeStyle&quot;:&quot;entityRelationEdgeStyle&quot;,&quot;startArrow&quot;:&quot;none&quot;,&quot;endArrow&quot;:&quot;none&quot;,&quot;segment&quot;:10,&quot;curved&quot;:1,&quot;sourcePerimeterSpacing&quot;:0,&quot;targetPerimeterSpacing&quot;:0};strokeColor=#000000;fontFamily=Helvetica;fontSize=12;fontColor=#000000;fillColor=none;fillStyle=auto;" vertex="1" parent="100">
                    <mxGeometry x="340" y="384" width="180" height="30" as="geometry"/>
                </mxCell>
                <mxCell id="159" value="共通ページからログイン" style="whiteSpace=wrap;html=1;rounded=1;arcSize=50;align=center;verticalAlign=middle;strokeWidth=1;autosize=1;spacing=4;treeFolding=1;treeMoving=1;newEdgeStyle={&quot;edgeStyle&quot;:&quot;entityRelationEdgeStyle&quot;,&quot;startArrow&quot;:&quot;none&quot;,&quot;endArrow&quot;:&quot;none&quot;,&quot;segment&quot;:10,&quot;curved&quot;:1,&quot;sourcePerimeterSpacing&quot;:0,&quot;targetPerimeterSpacing&quot;:0};strokeColor=#000000;fontFamily=Helvetica;fontSize=12;fontColor=#000000;fillColor=none;fillStyle=auto;" vertex="1" parent="100">
                    <mxGeometry x="340" y="1070" width="180" height="30" as="geometry"/>
                </mxCell>
                <mxCell id="142" value="共通ページからログイン" style="whiteSpace=wrap;html=1;rounded=1;arcSize=50;align=center;verticalAlign=middle;strokeWidth=1;autosize=1;spacing=4;treeFolding=1;treeMoving=1;newEdgeStyle={&quot;edgeStyle&quot;:&quot;entityRelationEdgeStyle&quot;,&quot;startArrow&quot;:&quot;none&quot;,&quot;endArrow&quot;:&quot;none&quot;,&quot;segment&quot;:10,&quot;curved&quot;:1,&quot;sourcePerimeterSpacing&quot;:0,&quot;targetPerimeterSpacing&quot;:0};strokeColor=#000000;fontFamily=Helvetica;fontSize=12;fontColor=#000000;fillColor=none;fillStyle=auto;" vertex="1" parent="100">
                    <mxGeometry x="760" y="840" width="180" height="30" as="geometry"/>
                </mxCell>
                <mxCell id="143" value="" style="startArrow=none;endArrow=none;segment=10;sourcePerimeterSpacing=0;targetPerimeterSpacing=0;fontFamily=Helvetica;fontSize=12;fontColor=#000000;rounded=0;strokeColor=#000000;entryX=0;entryY=0.5;entryDx=0;entryDy=0;" edge="1" parent="100" target="156">
                    <mxGeometry relative="1" as="geometry">
                        <mxPoint x="119.99999999999977" y="531" as="sourcePoint"/>
                    </mxGeometry>
                </mxCell>
                <mxCell id="160" value="" style="startArrow=none;endArrow=none;segment=10;sourcePerimeterSpacing=0;targetPerimeterSpacing=0;fontFamily=Helvetica;fontSize=12;fontColor=#000000;rounded=0;strokeColor=#000000;entryX=0;entryY=0.5;entryDx=0;entryDy=0;" edge="1" parent="100" target="155">
                    <mxGeometry relative="1" as="geometry">
                        <mxPoint x="120" y="530" as="sourcePoint"/>
                        <mxPoint x="200" y="434" as="targetPoint"/>
                    </mxGeometry>
                </mxCell>
                <mxCell id="161" value="" style="startArrow=none;endArrow=none;segment=10;sourcePerimeterSpacing=0;targetPerimeterSpacing=0;fontFamily=Helvetica;fontSize=12;fontColor=#000000;rounded=0;strokeColor=#000000;entryX=0;entryY=0.5;entryDx=0;entryDy=0;" edge="1" parent="100" target="124">
                    <mxGeometry relative="1" as="geometry">
                        <mxPoint x="120" y="530" as="sourcePoint"/>
                        <mxPoint x="375" y="615" as="targetPoint"/>
                    </mxGeometry>
                </mxCell>
                <mxCell id="163" value="" style="startArrow=none;endArrow=none;segment=10;sourcePerimeterSpacing=0;targetPerimeterSpacing=0;fontFamily=Helvetica;fontSize=12;fontColor=#000000;rounded=0;strokeColor=#000000;entryX=0;entryY=0.5;entryDx=0;entryDy=0;" edge="1" parent="100" target="121">
                    <mxGeometry relative="1" as="geometry">
                        <mxPoint x="120" y="530" as="sourcePoint"/>
                        <mxPoint x="380" y="685" as="targetPoint"/>
                    </mxGeometry>
                </mxCell>
                <mxCell id="157" value="" style="startArrow=none;endArrow=none;segment=10;sourcePerimeterSpacing=0;targetPerimeterSpacing=0;fontFamily=Helvetica;fontSize=12;fontColor=#000000;rounded=0;strokeColor=#000000;exitX=1;exitY=0.5;exitDx=0;exitDy=0;entryX=0;entryY=0.5;entryDx=0;entryDy=0;" edge="1" parent="100" source="156" target="116">
                    <mxGeometry relative="1" as="geometry">
                        <mxPoint x="129.99999999999977" y="410" as="sourcePoint"/>
                        <mxPoint x="380" y="480" as="targetPoint"/>
                    </mxGeometry>
                </mxCell>
                <mxCell id="145" value="" style="startArrow=none;endArrow=none;segment=10;sourcePerimeterSpacing=0;targetPerimeterSpacing=0;fontFamily=Helvetica;fontSize=12;fontColor=#000000;rounded=0;strokeColor=#000000;entryX=0;entryY=0.5;entryDx=0;entryDy=0;" edge="1" parent="100" target="147">
                    <mxGeometry relative="1" as="geometry">
                        <mxPoint x="290" y="1040" as="sourcePoint"/>
                        <mxPoint x="560" y="275" as="targetPoint"/>
                    </mxGeometry>
                </mxCell>
                <mxCell id="175" value="" style="startArrow=none;endArrow=none;segment=10;sourcePerimeterSpacing=0;targetPerimeterSpacing=0;fontFamily=Helvetica;fontSize=12;fontColor=#000000;rounded=0;strokeColor=#000000;entryX=0;entryY=0.5;entryDx=0;entryDy=0;" edge="1" parent="100" target="174">
                    <mxGeometry relative="1" as="geometry">
                        <mxPoint x="290" y="1040" as="sourcePoint"/>
                        <mxPoint x="380" y="895" as="targetPoint"/>
                    </mxGeometry>
                </mxCell>
                <mxCell id="189" value="" style="startArrow=none;endArrow=none;segment=10;sourcePerimeterSpacing=0;targetPerimeterSpacing=0;fontFamily=Helvetica;fontSize=12;fontColor=#000000;rounded=0;strokeColor=#000000;entryX=0;entryY=0.5;entryDx=0;entryDy=0;" edge="1" parent="100" target="186">
                    <mxGeometry relative="1" as="geometry">
                        <mxPoint x="290" y="1040" as="sourcePoint"/>
                        <mxPoint x="375" y="895" as="targetPoint"/>
                    </mxGeometry>
                </mxCell>
                <mxCell id="146" value="" style="startArrow=none;endArrow=none;segment=10;sourcePerimeterSpacing=0;targetPerimeterSpacing=0;fontFamily=Helvetica;fontSize=12;fontColor=#000000;rounded=0;strokeColor=#000000;entryX=0;entryY=0.5;entryDx=0;entryDy=0;" edge="1" parent="100" target="158">
                    <mxGeometry relative="1" as="geometry">
                        <mxPoint x="290" y="1040" as="sourcePoint"/>
                        <mxPoint x="270" y="880" as="targetPoint"/>
                    </mxGeometry>
                </mxCell>
                <mxCell id="147" value="記事の執筆" style="whiteSpace=wrap;html=1;rounded=1;arcSize=50;align=center;verticalAlign=middle;strokeWidth=1;autosize=1;spacing=4;treeFolding=1;treeMoving=1;newEdgeStyle={&quot;edgeStyle&quot;:&quot;entityRelationEdgeStyle&quot;,&quot;startArrow&quot;:&quot;none&quot;,&quot;endArrow&quot;:&quot;none&quot;,&quot;segment&quot;:10,&quot;curved&quot;:1,&quot;sourcePerimeterSpacing&quot;:0,&quot;targetPerimeterSpacing&quot;:0};strokeColor=#000000;fontFamily=Helvetica;fontSize=12;fontColor=#000000;fillColor=none;fillStyle=auto;" vertex="1" parent="100">
                    <mxGeometry x="370" y="960" width="120" height="30" as="geometry"/>
                </mxCell>
                <mxCell id="185" style="edgeStyle=entityRelationEdgeStyle;html=1;startArrow=none;endArrow=none;segment=10;curved=1;sourcePerimeterSpacing=0;targetPerimeterSpacing=0;exitX=1;exitY=0.5;exitDx=0;exitDy=0;dashed=1;strokeColor=#000000;fontColor=#000000;" edge="1" parent="100" source="174">
                    <mxGeometry relative="1" as="geometry">
                        <mxPoint x="510" y="885.2857142857142" as="targetPoint"/>
                    </mxGeometry>
                </mxCell>
                <mxCell id="174" value="記事の状態変更" style="whiteSpace=wrap;html=1;rounded=1;arcSize=50;align=center;verticalAlign=middle;strokeWidth=1;autosize=1;spacing=4;treeFolding=1;treeMoving=1;newEdgeStyle={&quot;edgeStyle&quot;:&quot;entityRelationEdgeStyle&quot;,&quot;startArrow&quot;:&quot;none&quot;,&quot;endArrow&quot;:&quot;none&quot;,&quot;segment&quot;:10,&quot;curved&quot;:1,&quot;sourcePerimeterSpacing&quot;:0,&quot;targetPerimeterSpacing&quot;:0};strokeColor=#000000;fontFamily=Helvetica;fontSize=12;fontColor=#000000;fillColor=none;fillStyle=auto;" vertex="1" parent="100">
                    <mxGeometry x="365" y="870" width="130" height="30" as="geometry"/>
                </mxCell>
                <mxCell id="187" style="edgeStyle=entityRelationEdgeStyle;html=1;startArrow=none;endArrow=none;segment=10;curved=1;sourcePerimeterSpacing=0;targetPerimeterSpacing=0;exitX=1;exitY=0.5;exitDx=0;exitDy=0;dashed=1;strokeColor=#000000;fontColor=#000000;" edge="1" parent="100" source="186">
                    <mxGeometry relative="1" as="geometry">
                        <mxPoint x="510" y="932.1428571428571" as="targetPoint"/>
                    </mxGeometry>
                </mxCell>
                <mxCell id="186" value="記事の変換" style="whiteSpace=wrap;html=1;rounded=1;arcSize=50;align=center;verticalAlign=middle;strokeWidth=1;autosize=1;spacing=4;treeFolding=1;treeMoving=1;newEdgeStyle={&quot;edgeStyle&quot;:&quot;entityRelationEdgeStyle&quot;,&quot;startArrow&quot;:&quot;none&quot;,&quot;endArrow&quot;:&quot;none&quot;,&quot;segment&quot;:10,&quot;curved&quot;:1,&quot;sourcePerimeterSpacing&quot;:0,&quot;targetPerimeterSpacing&quot;:0};strokeColor=#000000;fontFamily=Helvetica;fontSize=12;fontColor=#000000;fillColor=none;fillStyle=auto;" vertex="1" parent="100">
                    <mxGeometry x="380" y="917" width="100" height="30" as="geometry"/>
                </mxCell>
                <mxCell id="149" value="" style="startArrow=none;endArrow=none;segment=10;sourcePerimeterSpacing=0;targetPerimeterSpacing=0;fontFamily=Helvetica;fontSize=12;fontColor=#000000;rounded=0;strokeColor=#000000;exitX=0;exitY=0.5;exitDx=0;exitDy=0;" edge="1" parent="100" source="159">
                    <mxGeometry relative="1" as="geometry">
                        <mxPoint x="260" y="1090" as="sourcePoint"/>
                        <mxPoint x="290" y="1040" as="targetPoint"/>
                    </mxGeometry>
                </mxCell>
                <mxCell id="151" value="" style="group" vertex="1" connectable="0" parent="100">
                    <mxGeometry x="1020" y="830" width="80" height="87" as="geometry"/>
                </mxCell>
                <mxCell id="112" value="Actor" style="shape=umlActor;verticalLabelPosition=bottom;verticalAlign=top;html=1;outlineConnect=0;strokeColor=#000000;" vertex="1" parent="151">
                    <mxGeometry x="25" width="30" height="60" as="geometry"/>
                </mxCell>
                <mxCell id="113" value="&lt;font color=&quot;#000000&quot;&gt;作業者&lt;/font&gt;" style="text;strokeColor=none;align=center;fillColor=none;html=1;verticalAlign=middle;whiteSpace=wrap;rounded=0;fontFamily=Helvetica;fontSize=12;fontColor=default;" vertex="1" parent="151">
                    <mxGeometry y="67" width="80" height="20" as="geometry"/>
                </mxCell>
                <mxCell id="116" value="書籍の作成" style="whiteSpace=wrap;html=1;rounded=1;arcSize=50;align=center;verticalAlign=middle;strokeWidth=1;autosize=1;spacing=4;treeFolding=1;treeMoving=1;newEdgeStyle={&quot;edgeStyle&quot;:&quot;entityRelationEdgeStyle&quot;,&quot;startArrow&quot;:&quot;none&quot;,&quot;endArrow&quot;:&quot;none&quot;,&quot;segment&quot;:10,&quot;curved&quot;:1,&quot;sourcePerimeterSpacing&quot;:0,&quot;targetPerimeterSpacing&quot;:0};strokeColor=#000000;fontFamily=Helvetica;fontSize=12;fontColor=#000000;fillColor=none;fillStyle=auto;" vertex="1" parent="100">
                    <mxGeometry x="370" y="440" width="120" height="30" as="geometry"/>
                </mxCell>
                <mxCell id="156" value="書籍の企画" style="whiteSpace=wrap;html=1;rounded=1;arcSize=50;align=center;verticalAlign=middle;strokeWidth=1;autosize=1;spacing=4;treeFolding=1;treeMoving=1;newEdgeStyle={&quot;edgeStyle&quot;:&quot;entityRelationEdgeStyle&quot;,&quot;startArrow&quot;:&quot;none&quot;,&quot;endArrow&quot;:&quot;none&quot;,&quot;segment&quot;:10,&quot;curved&quot;:1,&quot;sourcePerimeterSpacing&quot;:0,&quot;targetPerimeterSpacing&quot;:0};strokeColor=#000000;fontFamily=Helvetica;fontSize=12;fontColor=#000000;fillColor=none;fillStyle=auto;" vertex="1" parent="100">
                    <mxGeometry x="200" y="490" width="100" height="30" as="geometry"/>
                </mxCell>
                <mxCell id="144" value="" style="startArrow=none;endArrow=none;segment=10;sourcePerimeterSpacing=0;targetPerimeterSpacing=0;fontFamily=Helvetica;fontSize=12;fontColor=#000000;rounded=0;strokeColor=#000000;exitX=0.5;exitY=1;exitDx=0;exitDy=0;entryX=0.5;entryY=0;entryDx=0;entryDy=0;dashed=1;" edge="1" parent="100" source="116" target="155">
                    <mxGeometry relative="1" as="geometry">
                        <mxPoint x="234" y="570" as="sourcePoint"/>
                        <mxPoint x="470" y="560" as="targetPoint"/>
                    </mxGeometry>
                </mxCell>
                <mxCell id="162" value="" style="startArrow=none;endArrow=none;segment=10;sourcePerimeterSpacing=0;targetPerimeterSpacing=0;fontFamily=Helvetica;fontSize=12;fontColor=#000000;rounded=0;strokeColor=#000000;exitX=0.5;exitY=1;exitDx=0;exitDy=0;dashed=1;entryX=0.5;entryY=0;entryDx=0;entryDy=0;" edge="1" parent="100" source="155" target="124">
                    <mxGeometry relative="1" as="geometry">
                        <mxPoint x="440" y="560" as="sourcePoint"/>
                        <mxPoint x="430" y="580" as="targetPoint"/>
                    </mxGeometry>
                </mxCell>
                <mxCell id="164" value="" style="startArrow=none;endArrow=none;segment=10;sourcePerimeterSpacing=0;targetPerimeterSpacing=0;fontFamily=Helvetica;fontSize=12;fontColor=#000000;rounded=0;strokeColor=#000000;exitX=0.5;exitY=1;exitDx=0;exitDy=0;dashed=1;entryX=0.5;entryY=0;entryDx=0;entryDy=0;" edge="1" parent="100" source="124" target="125">
                    <mxGeometry relative="1" as="geometry">
                        <mxPoint x="440" y="640" as="sourcePoint"/>
                        <mxPoint x="440" y="670" as="targetPoint"/>
                    </mxGeometry>
                </mxCell>
                <mxCell id="168" value="" style="edgeStyle=elbowEdgeStyle;elbow=vertical;endArrow=none;html=1;curved=0;rounded=0;endSize=8;startSize=8;strokeColor=#000000;fontColor=#000000;exitX=0.5;exitY=1;exitDx=0;exitDy=0;endFill=0;entryX=0;entryY=0.5;entryDx=0;entryDy=0;" edge="1" parent="100" source="103" target="122">
                    <mxGeometry width="50" height="50" relative="1" as="geometry">
                        <mxPoint x="70" y="680" as="sourcePoint"/>
                        <mxPoint x="290" y="830" as="targetPoint"/>
                        <Array as="points">
                            <mxPoint x="300" y="805"/>
                            <mxPoint x="230" y="812"/>
                        </Array>
                    </mxGeometry>
                </mxCell>
                <mxCell id="181" value="" style="edgeStyle=elbowEdgeStyle;elbow=vertical;endArrow=none;html=1;curved=0;rounded=0;endSize=8;startSize=8;strokeColor=#000000;fontColor=#000000;exitX=0.5;exitY=1;exitDx=0;exitDy=0;endFill=0;entryX=0;entryY=0.5;entryDx=0;entryDy=0;" edge="1" parent="100" target="174">
                    <mxGeometry width="50" height="50" relative="1" as="geometry">
                        <mxPoint x="80" y="610" as="sourcePoint"/>
                        <mxPoint x="365" y="845" as="targetPoint"/>
                        <Array as="points">
                            <mxPoint x="230" y="885"/>
                            <mxPoint x="300" y="845"/>
                            <mxPoint x="230" y="852"/>
                        </Array>
                    </mxGeometry>
                </mxCell>
                <mxCell id="171" value="" style="edgeStyle=elbowEdgeStyle;elbow=horizontal;endArrow=none;html=1;curved=0;rounded=0;endSize=8;startSize=8;strokeColor=#000000;fontColor=#000000;endFill=0;entryX=1;entryY=0.5;entryDx=0;entryDy=0;exitX=1;exitY=0.5;exitDx=0;exitDy=0;dashed=1;" edge="1" parent="100" source="147" target="124">
                    <mxGeometry width="50" height="50" relative="1" as="geometry">
                        <mxPoint x="550" y="810" as="sourcePoint"/>
                        <mxPoint x="550" y="760" as="targetPoint"/>
                        <Array as="points">
                            <mxPoint x="510" y="780"/>
                        </Array>
                    </mxGeometry>
                </mxCell>
                <mxCell id="188" value="" style="edgeStyle=elbowEdgeStyle;elbow=vertical;endArrow=none;html=1;curved=0;rounded=0;endSize=8;startSize=8;strokeColor=#000000;fontColor=#000000;endFill=0;entryX=0;entryY=0.5;entryDx=0;entryDy=0;" edge="1" parent="100" target="186">
                    <mxGeometry width="50" height="50" relative="1" as="geometry">
                        <mxPoint x="80" y="660" as="sourcePoint"/>
                        <mxPoint x="380" y="935" as="targetPoint"/>
                        <Array as="points">
                            <mxPoint x="200" y="932"/>
                            <mxPoint x="80" y="900"/>
                            <mxPoint x="70" y="910"/>
                            <mxPoint x="250" y="932"/>
                            <mxPoint x="245" y="935"/>
                            <mxPoint x="315" y="895"/>
                            <mxPoint x="245" y="902"/>
                        </Array>
                    </mxGeometry>
                </mxCell>
            </root>
        </mxGraphModel>
    </diagram>
</mxfile>
